<svg width="121" height="40" viewBox="0 0 121 40" fill="none" xmlns="http://www.w3.org/2000/svg">
<path d="M76.5044 9.58643V30.2702H80.5611C80.7223 30.2702 80.853 30.1395 80.853 29.9783V13.1824H81.7572C81.9184 13.1824 82.0491 13.0517 82.0491 12.8905V9.87834C82.0491 9.71712 81.9184 9.58643 81.7572 9.58643H76.5044Z" fill="url(#paint0_linear_73_2901)"/>
<path d="M76.5044 9.58643V30.2702H80.5611C80.7223 30.2702 80.853 30.1395 80.853 29.9783V13.1824H81.7572C81.9184 13.1824 82.0491 13.0517 82.0491 12.8905V9.87834C82.0491 9.71712 81.9184 9.58643 81.7572 9.58643H76.5044Z" fill="#557FFF"/>
<path d="M6.41617 30.4932C5.17106 30.4932 3.95382 30.3445 2.76445 30.0472C1.69098 29.7621 0.81431 29.4164 0.134443 29.0101C0.0102453 28.9359 -0.033755 28.7792 0.0271719 28.648L1.23007 26.0572C1.30448 25.8969 1.50293 25.8393 1.65611 25.9273C2.26585 26.278 2.9791 26.5734 3.79585 26.8136C4.74363 27.0738 5.67282 27.2039 6.58343 27.2039C8.42322 27.2039 9.34312 26.7486 9.34312 25.838C9.34312 25.4105 9.09224 25.1039 8.59048 24.9181C8.08871 24.7322 7.31749 24.5743 6.27679 24.4442C5.05026 24.2583 4.03744 24.0446 3.23834 23.803C2.43924 23.5615 1.74234 23.134 1.14766 22.5208C0.571562 21.9075 0.283513 21.0341 0.283513 19.9004C0.283513 18.9527 0.552979 18.1164 1.09191 17.3916C1.64942 16.6483 2.44853 16.0722 3.48922 15.6633C4.5485 15.2545 5.79361 15.0501 7.22457 15.0501C8.28384 15.0501 9.33383 15.1709 10.3745 15.4124C11.3189 15.6113 12.1155 15.8839 12.7645 16.2304C12.8969 16.3011 12.9463 16.4638 12.8826 16.5998L11.6788 19.1695C11.6067 19.3233 11.4193 19.3829 11.2685 19.3048C10.0251 18.6612 8.67712 18.3394 7.22457 18.3394C6.29538 18.3394 5.59848 18.4695 5.13389 18.7297C4.66929 18.9898 4.437 19.3243 4.437 19.7332C4.437 20.1978 4.68788 20.523 5.18964 20.7088C5.6914 20.8947 6.49051 21.0712 7.58695 21.2385C8.81348 21.4429 9.81701 21.6659 10.5975 21.9075C11.378 22.1305 12.0564 22.5486 12.6325 23.1619C13.2086 23.7752 13.4966 24.63 13.4966 25.7265C13.4966 26.6557 13.2178 27.4826 12.6603 28.2074C12.1028 28.9322 11.2851 29.499 10.2073 29.9078C9.14799 30.2981 7.88429 30.4932 6.41617 30.4932Z" fill="url(#paint1_linear_73_2901)"/>
<path d="M6.41617 30.4932C5.17106 30.4932 3.95382 30.3445 2.76445 30.0472C1.69098 29.7621 0.81431 29.4164 0.134443 29.0101C0.0102453 28.9359 -0.033755 28.7792 0.0271719 28.648L1.23007 26.0572C1.30448 25.8969 1.50293 25.8393 1.65611 25.9273C2.26585 26.278 2.9791 26.5734 3.79585 26.8136C4.74363 27.0738 5.67282 27.2039 6.58343 27.2039C8.42322 27.2039 9.34312 26.7486 9.34312 25.838C9.34312 25.4105 9.09224 25.1039 8.59048 24.9181C8.08871 24.7322 7.31749 24.5743 6.27679 24.4442C5.05026 24.2583 4.03744 24.0446 3.23834 23.803C2.43924 23.5615 1.74234 23.134 1.14766 22.5208C0.571562 21.9075 0.283513 21.0341 0.283513 19.9004C0.283513 18.9527 0.552979 18.1164 1.09191 17.3916C1.64942 16.6483 2.44853 16.0722 3.48922 15.6633C4.5485 15.2545 5.79361 15.0501 7.22457 15.0501C8.28384 15.0501 9.33383 15.1709 10.3745 15.4124C11.3189 15.6113 12.1155 15.8839 12.7645 16.2304C12.8969 16.3011 12.9463 16.4638 12.8826 16.5998L11.6788 19.1695C11.6067 19.3233 11.4193 19.3829 11.2685 19.3048C10.0251 18.6612 8.67712 18.3394 7.22457 18.3394C6.29538 18.3394 5.59848 18.4695 5.13389 18.7297C4.66929 18.9898 4.437 19.3243 4.437 19.7332C4.437 20.1978 4.68788 20.523 5.18964 20.7088C5.6914 20.8947 6.49051 21.0712 7.58695 21.2385C8.81348 21.4429 9.81701 21.6659 10.5975 21.9075C11.378 22.1305 12.0564 22.5486 12.6325 23.1619C13.2086 23.7752 13.4966 24.63 13.4966 25.7265C13.4966 26.6557 13.2178 27.4826 12.6603 28.2074C12.1028 28.9322 11.2851 29.499 10.2073 29.9078C9.14799 30.2981 7.88429 30.4932 6.41617 30.4932Z" fill="#557FFF"/>
<path fill-rule="evenodd" clip-rule="evenodd" d="M23.3158 30.4932C21.7362 30.4932 20.3145 30.168 19.0508 29.5176C17.8057 28.8485 16.8301 27.9286 16.1239 26.7579C15.4177 25.5871 15.0646 24.2583 15.0646 22.7716C15.0646 21.2849 15.4177 19.9562 16.1239 18.7854C16.8301 17.6146 17.8057 16.704 19.0508 16.0536C20.3145 15.3846 21.7362 15.0501 23.3158 15.0501C24.8954 15.0501 26.3078 15.3846 27.5529 16.0536C28.798 16.704 29.7737 17.6146 30.4799 18.7854C31.1861 19.9562 31.5392 21.2849 31.5392 22.7716C31.5392 24.2583 31.1861 25.5871 30.4799 26.7579C29.7737 27.9286 28.798 28.8485 27.5529 29.5176C26.3078 30.168 24.8954 30.4932 23.3158 30.4932ZM23.3158 26.9251C24.4309 26.9251 25.3415 26.5534 26.0476 25.8101C26.7724 25.0482 27.1348 24.0353 27.1348 22.7716C27.1348 21.5079 26.7724 20.5044 26.0476 19.7611C25.3415 18.9991 24.4309 18.6182 23.3158 18.6182C22.2008 18.6182 21.2809 18.9991 20.5561 19.7611C19.8314 20.5044 19.469 21.5079 19.469 22.7716C19.469 24.0353 19.8314 25.0482 20.5561 25.8101C21.2809 26.5534 22.2008 26.9251 23.3158 26.9251Z" fill="url(#paint2_linear_73_2901)"/>
<path fill-rule="evenodd" clip-rule="evenodd" d="M23.3158 30.4932C21.7362 30.4932 20.3145 30.168 19.0508 29.5176C17.8057 28.8485 16.8301 27.9286 16.1239 26.7579C15.4177 25.5871 15.0646 24.2583 15.0646 22.7716C15.0646 21.2849 15.4177 19.9562 16.1239 18.7854C16.8301 17.6146 17.8057 16.704 19.0508 16.0536C20.3145 15.3846 21.7362 15.0501 23.3158 15.0501C24.8954 15.0501 26.3078 15.3846 27.5529 16.0536C28.798 16.704 29.7737 17.6146 30.4799 18.7854C31.1861 19.9562 31.5392 21.2849 31.5392 22.7716C31.5392 24.2583 31.1861 25.5871 30.4799 26.7579C29.7737 27.9286 28.798 28.8485 27.5529 29.5176C26.3078 30.168 24.8954 30.4932 23.3158 30.4932ZM23.3158 26.9251C24.4309 26.9251 25.3415 26.5534 26.0476 25.8101C26.7724 25.0482 27.1348 24.0353 27.1348 22.7716C27.1348 21.5079 26.7724 20.5044 26.0476 19.7611C25.3415 18.9991 24.4309 18.6182 23.3158 18.6182C22.2008 18.6182 21.2809 18.9991 20.5561 19.7611C19.8314 20.5044 19.469 21.5079 19.469 22.7716C19.469 24.0353 19.8314 25.0482 20.5561 25.8101C21.2809 26.5534 22.2008 26.9251 23.3158 26.9251Z" fill="#557FFF"/>
<path d="M37.3728 29.5176C38.6551 30.168 40.0953 30.4932 41.6935 30.4932C43.2732 30.4932 44.6484 30.1587 45.8191 29.4897C46.9258 28.8672 47.7508 28.0195 48.2944 26.9466C48.3635 26.8102 48.3078 26.6455 48.1736 26.5723L45.2932 25.0012C45.1523 24.9243 44.9766 24.9762 44.8915 25.1122C44.1347 26.3208 43.0594 26.9251 41.6657 26.9251C40.5321 26.9251 39.5936 26.5534 38.8502 25.8101C38.1069 25.0667 37.7352 24.0539 37.7352 22.7716C37.7352 21.4894 38.1069 20.4765 38.8502 19.7332C39.5936 18.9898 40.5321 18.6182 41.6657 18.6182C43.0441 18.6182 44.1194 19.2243 44.8917 20.4365C44.9769 20.5703 45.1502 20.621 45.2899 20.546L48.174 18.9967C48.3081 18.9246 48.365 18.7611 48.2979 18.6244C47.7544 17.517 46.9282 16.6601 45.8191 16.0536C44.6484 15.3846 43.2732 15.0501 41.6935 15.0501C40.0953 15.0501 38.6551 15.3846 37.3728 16.0536C36.1091 16.704 35.1149 17.6146 34.3901 18.7854C33.6839 19.9562 33.3308 21.2849 33.3308 22.7716C33.3308 24.2583 33.6839 25.5871 34.3901 26.7579C35.1149 27.9286 36.1091 28.8485 37.3728 29.5176Z" fill="url(#paint3_linear_73_2901)"/>
<path d="M37.3728 29.5176C38.6551 30.168 40.0953 30.4932 41.6935 30.4932C43.2732 30.4932 44.6484 30.1587 45.8191 29.4897C46.9258 28.8672 47.7508 28.0195 48.2944 26.9466C48.3635 26.8102 48.3078 26.6455 48.1736 26.5723L45.2932 25.0012C45.1523 24.9243 44.9766 24.9762 44.8915 25.1122C44.1347 26.3208 43.0594 26.9251 41.6657 26.9251C40.5321 26.9251 39.5936 26.5534 38.8502 25.8101C38.1069 25.0667 37.7352 24.0539 37.7352 22.7716C37.7352 21.4894 38.1069 20.4765 38.8502 19.7332C39.5936 18.9898 40.5321 18.6182 41.6657 18.6182C43.0441 18.6182 44.1194 19.2243 44.8917 20.4365C44.9769 20.5703 45.1502 20.621 45.2899 20.546L48.174 18.9967C48.3081 18.9246 48.365 18.7611 48.2979 18.6244C47.7544 17.517 46.9282 16.6601 45.8191 16.0536C44.6484 15.3846 43.2732 15.0501 41.6935 15.0501C40.0953 15.0501 38.6551 15.3846 37.3728 16.0536C36.1091 16.704 35.1149 17.6146 34.3901 18.7854C33.6839 19.9562 33.3308 21.2849 33.3308 22.7716C33.3308 24.2583 33.6839 25.5871 34.3901 26.7579C35.1149 27.9286 36.1091 28.8485 37.3728 29.5176Z" fill="#557FFF"/>
<path fill-rule="evenodd" clip-rule="evenodd" d="M65.3489 15.0501C67.6719 15.0501 69.4559 15.6076 70.7011 16.7226C71.9462 17.8191 72.5687 19.4823 72.5687 21.7124V29.9783C72.5687 30.1395 72.438 30.2702 72.2768 30.2702H68.7908C68.6296 30.2702 68.4989 30.1395 68.4989 29.9783V28.4025C67.6812 29.7963 66.1573 30.4932 63.9273 30.4932C62.7751 30.4932 61.7715 30.2981 60.9167 29.9078C60.0804 29.5176 59.4393 28.9786 58.9933 28.291C58.5472 27.6034 58.3242 26.8229 58.3242 25.9495C58.3242 24.5557 58.8446 23.4592 59.8853 22.6601C60.9446 21.861 62.5706 21.4615 64.7635 21.4615H67.9282C68.0894 21.4615 68.2214 21.3305 68.2105 21.1696C68.1563 20.3636 67.8714 19.7361 67.356 19.2872C66.7799 18.7668 65.9157 18.5067 64.7635 18.5067C63.9644 18.5067 63.1746 18.6367 62.3941 18.8969C61.7624 19.0972 61.2073 19.3614 60.7289 19.6895C60.5771 19.7935 60.3644 19.7479 60.2803 19.5842L58.9978 17.0878C58.9312 16.9583 58.9699 16.7991 59.0916 16.7192C59.8648 16.2117 60.7705 15.8133 61.8087 15.524C62.9609 15.208 64.141 15.0501 65.3489 15.0501ZM65.0144 27.5663C65.7578 27.5663 66.4175 27.399 66.9936 27.0645C67.5697 26.7114 67.9785 26.2004 68.2201 25.5313V24.2901C68.2201 24.1289 68.0894 23.9982 67.9282 23.9982H65.2374C63.4534 23.9982 62.5613 24.5836 62.5613 25.7543C62.5613 26.3119 62.7751 26.7579 63.2025 27.0924C63.6485 27.4083 64.2525 27.5663 65.0144 27.5663Z" fill="url(#paint4_linear_73_2901)"/>
<path fill-rule="evenodd" clip-rule="evenodd" d="M65.3489 15.0501C67.6719 15.0501 69.4559 15.6076 70.7011 16.7226C71.9462 17.8191 72.5687 19.4823 72.5687 21.7124V29.9783C72.5687 30.1395 72.438 30.2702 72.2768 30.2702H68.7908C68.6296 30.2702 68.4989 30.1395 68.4989 29.9783V28.4025C67.6812 29.7963 66.1573 30.4932 63.9273 30.4932C62.7751 30.4932 61.7715 30.2981 60.9167 29.9078C60.0804 29.5176 59.4393 28.9786 58.9933 28.291C58.5472 27.6034 58.3242 26.8229 58.3242 25.9495C58.3242 24.5557 58.8446 23.4592 59.8853 22.6601C60.9446 21.861 62.5706 21.4615 64.7635 21.4615H67.9282C68.0894 21.4615 68.2214 21.3305 68.2105 21.1696C68.1563 20.3636 67.8714 19.7361 67.356 19.2872C66.7799 18.7668 65.9157 18.5067 64.7635 18.5067C63.9644 18.5067 63.1746 18.6367 62.3941 18.8969C61.7624 19.0972 61.2073 19.3614 60.7289 19.6895C60.5771 19.7935 60.3644 19.7479 60.2803 19.5842L58.9978 17.0878C58.9312 16.9583 58.9699 16.7991 59.0916 16.7192C59.8648 16.2117 60.7705 15.8133 61.8087 15.524C62.9609 15.208 64.141 15.0501 65.3489 15.0501ZM65.0144 27.5663C65.7578 27.5663 66.4175 27.399 66.9936 27.0645C67.5697 26.7114 67.9785 26.2004 68.2201 25.5313V24.2901C68.2201 24.1289 68.0894 23.9982 67.9282 23.9982H65.2374C63.4534 23.9982 62.5613 24.5836 62.5613 25.7543C62.5613 26.3119 62.7751 26.7579 63.2025 27.0924C63.6485 27.4083 64.2525 27.5663 65.0144 27.5663Z" fill="#557FFF"/>
<path d="M54.9458 15.2731C55.107 15.2731 55.2377 15.4038 55.2377 15.565V29.9783C55.2377 30.1395 55.107 30.2702 54.9458 30.2702H51.181C51.0198 30.2702 50.8891 30.1395 50.8891 29.9783V18.869H49.985C49.8237 18.869 49.693 18.7383 49.693 18.5771V15.565C49.693 15.4038 49.8237 15.2731 49.985 15.2731H54.9458Z" fill="url(#paint5_linear_73_2901)"/>
<path d="M54.9458 15.2731C55.107 15.2731 55.2377 15.4038 55.2377 15.565V29.9783C55.2377 30.1395 55.107 30.2702 54.9458 30.2702H51.181C51.0198 30.2702 50.8891 30.1395 50.8891 29.9783V18.869H49.985C49.8237 18.869 49.693 18.7383 49.693 18.5771V15.565C49.693 15.4038 49.8237 15.2731 49.985 15.2731H54.9458Z" fill="#557FFF"/>
<path d="M50.8885 11.7605C50.8885 10.5598 51.8618 9.58643 53.0625 9.58643C54.2632 9.58643 55.2366 10.5598 55.2366 11.7605C55.2366 12.9612 54.2632 13.9345 53.0625 13.9345C51.8618 13.9345 50.8885 12.9612 50.8885 11.7605Z" fill="url(#paint6_linear_73_2901)"/>
<path d="M50.8885 11.7605C50.8885 10.5598 51.8618 9.58643 53.0625 9.58643C54.2632 9.58643 55.2366 10.5598 55.2366 11.7605C55.2366 12.9612 54.2632 13.9345 53.0625 13.9345C51.8618 13.9345 50.8885 12.9612 50.8885 11.7605Z" fill="#557FFF"/>
<path fill-rule="evenodd" clip-rule="evenodd" d="M103.047 39.8216L85.97 29.9622V10.2432L100.867 18.8441V20.8465C100.867 21.0216 101.009 21.1635 101.184 21.1635H102.657C102.791 21.1635 102.921 21.1663 103.047 21.1719L103.047 25.4226C102.921 25.4295 102.791 25.4329 102.657 25.4329C101.77 25.4329 100.9 25.3035 100.045 25.0448C99.3374 24.8127 98.6987 24.5057 98.1288 24.1237C97.965 24.0139 97.7386 24.0662 97.6495 24.2422L96.4194 26.6711C96.3489 26.8102 96.3897 26.9805 96.5194 27.0671C97.2805 27.5756 98.1817 27.9769 99.223 28.2712C100.384 28.5784 101.56 28.7321 102.753 28.7321C102.852 28.7321 102.95 28.731 103.047 28.7289L103.047 39.8216Z" fill="url(#paint7_linear_73_2901)"/>
<path fill-rule="evenodd" clip-rule="evenodd" d="M103.047 0.383789L120.124 10.2433L105.815 18.5044C105.608 18.4539 105.394 18.4104 105.171 18.374L108.914 14.0971C108.964 14.0394 108.992 13.9652 108.992 13.8884V11.7773C108.992 11.6023 108.85 11.4604 108.675 11.4604H97.4601C97.2851 11.4604 97.1432 11.6023 97.1432 11.7773V14.2971C97.1432 14.4721 97.2851 14.614 97.4601 14.614H103.648C103.921 14.614 104.066 14.9356 103.886 15.1403L100.907 18.5232C100.881 18.5521 100.867 18.5894 100.867 18.6279V18.8443L85.9697 10.2433L103.047 0.383789Z" fill="url(#paint8_linear_73_2901)"/>
<path fill-rule="evenodd" clip-rule="evenodd" d="M105.815 18.5042L120.124 10.2432V29.9622L103.047 39.8216L103.047 28.7289C104.45 28.6986 105.642 28.449 106.622 27.9801C107.686 27.4787 108.476 26.8157 108.992 25.9909C109.508 25.1499 109.766 24.2362 109.766 23.2497C109.766 21.9721 109.371 20.9047 108.581 20.0476C107.909 19.3053 106.988 18.7908 105.815 18.5042ZM103.047 21.1719L103.047 25.4226C103.847 25.3788 104.491 25.1963 104.978 24.875C105.542 24.4869 105.824 23.9451 105.824 23.2497C105.824 21.9474 104.898 21.2548 103.047 21.1719Z" fill="url(#paint9_linear_73_2901)"/>
<defs>
<linearGradient id="paint0_linear_73_2901" x1="121.629" y1="-3.29897" x2="18.8177" y2="-49.5916" gradientUnits="userSpaceOnUse">
<stop stop-color="#01BFFF"/>
<stop offset="1" stop-color="#5558FF"/>
</linearGradient>
<linearGradient id="paint1_linear_73_2901" x1="121.629" y1="-3.29897" x2="18.8177" y2="-49.5916" gradientUnits="userSpaceOnUse">
<stop stop-color="#01BFFF"/>
<stop offset="1" stop-color="#5558FF"/>
</linearGradient>
<linearGradient id="paint2_linear_73_2901" x1="121.629" y1="-3.29897" x2="18.8177" y2="-49.5916" gradientUnits="userSpaceOnUse">
<stop stop-color="#01BFFF"/>
<stop offset="1" stop-color="#5558FF"/>
</linearGradient>
<linearGradient id="paint3_linear_73_2901" x1="121.629" y1="-3.29897" x2="18.8177" y2="-49.5916" gradientUnits="userSpaceOnUse">
<stop stop-color="#01BFFF"/>
<stop offset="1" stop-color="#5558FF"/>
</linearGradient>
<linearGradient id="paint4_linear_73_2901" x1="121.629" y1="-3.29897" x2="18.8177" y2="-49.5916" gradientUnits="userSpaceOnUse">
<stop stop-color="#01BFFF"/>
<stop offset="1" stop-color="#5558FF"/>
</linearGradient>
<linearGradient id="paint5_linear_73_2901" x1="121.629" y1="-3.29897" x2="18.8177" y2="-49.5916" gradientUnits="userSpaceOnUse">
<stop stop-color="#01BFFF"/>
<stop offset="1" stop-color="#5558FF"/>
</linearGradient>
<linearGradient id="paint6_linear_73_2901" x1="121.629" y1="-3.29897" x2="18.8177" y2="-49.5916" gradientUnits="userSpaceOnUse">
<stop stop-color="#01BFFF"/>
<stop offset="1" stop-color="#5558FF"/>
</linearGradient>
<linearGradient id="paint7_linear_73_2901" x1="83.6346" y1="26.5175" x2="103.406" y2="19.837" gradientUnits="userSpaceOnUse">
<stop stop-color="#729AFF"/>
<stop offset="1" stop-color="#3764FF"/>
</linearGradient>
<linearGradient id="paint8_linear_73_2901" x1="103.047" y1="0.383789" x2="103.047" y2="20.1028" gradientUnits="userSpaceOnUse">
<stop stop-color="#729AFF"/>
<stop offset="1" stop-color="#3764FF"/>
</linearGradient>
<linearGradient id="paint9_linear_73_2901" x1="124.211" y1="31.553" x2="103.047" y2="19.5115" gradientUnits="userSpaceOnUse">
<stop stop-color="#729AFF"/>
<stop offset="0.880275" stop-color="#4B73FF"/>
</linearGradient>
</defs>
</svg>
